<svg width="19" height="19" viewBox="0 0 19 19" fill="none" xmlns="http://www.w3.org/2000/svg">
<path d="M4.5 9C2.01472 9 0 6.98528 0 4.5C0 2.01472 2.01472 0 4.5 0C6.98528 0 9 2.01472 9 4.5C9 6.98528 6.98528 9 4.5 9ZM4.5 19C2.01472 19 0 16.9853 0 14.5C0 12.0147 2.01472 10 4.5 10C6.98528 10 9 12.0147 9 14.5C9 16.9853 6.98528 19 4.5 19ZM14.5 9C12.0147 9 10 6.98528 10 4.5C10 2.01472 12.0147 0 14.5 0C16.9853 0 19 2.01472 19 4.5C19 6.98528 16.9853 9 14.5 9ZM14.5 19C12.0147 19 10 16.9853 10 14.5C10 12.0147 12.0147 10 14.5 10C16.9853 10 19 12.0147 19 14.5C19 16.9853 16.9853 19 14.5 19ZM4.5 7C5.88071 7 7 5.88071 7 4.5C7 3.11929 5.88071 2 4.5 2C3.11929 2 2 3.11929 2 4.5C2 5.88071 3.11929 7 4.5 7ZM4.5 17C5.88071 17 7 15.8807 7 14.5C7 13.1193 5.88071 12 4.5 12C3.11929 12 2 13.1193 2 14.5C2 15.8807 3.11929 17 4.5 17ZM14.5 7C15.8807 7 17 5.88071 17 4.5C17 3.11929 15.8807 2 14.5 2C13.1193 2 12 3.11929 12 4.5C12 5.88071 13.1193 7 14.5 7ZM14.5 17C15.8807 17 17 15.8807 17 14.5C17 13.1193 15.8807 12 14.5 12C13.1193 12 12 13.1193 12 14.5C12 15.8807 13.1193 17 14.5 17Z" fill="white"/>
</svg>
