<svg width="36" height="36" viewBox="0 0 36 36" fill="none" xmlns="http://www.w3.org/2000/svg">
<rect x="0.5" y="0.5" width="35" height="35" rx="7.5" stroke="white" stroke-opacity="0.8"/>
<path d="M19.919 22.2623L22.5725 24.8239C23.116 25.3475 23.116 26.1979 22.5725 26.7221C22.0294 27.2462 21.1493 27.2462 20.6069 26.7221L17.998 24.2049L15.3914 26.7221C15.1196 26.9839 14.7635 27.1149 14.4074 27.1149C14.0518 27.1149 13.6962 26.9839 13.4244 26.7221C12.8814 26.1979 12.8814 25.348 13.4238 24.8239L16.0776 22.2623C15.1114 22.0498 14.1796 21.6802 13.3213 21.1605C12.6718 20.7651 12.4767 19.937 12.8859 19.3094C13.2941 18.6811 14.1523 18.4919 14.803 18.8872C16.7461 20.0672 19.2493 20.0674 21.1936 18.8872C21.8443 18.4919 22.7023 18.6811 23.1112 19.3094C23.5205 19.9364 23.3248 20.7651 22.6753 21.1605C21.817 21.6808 20.8852 22.0498 19.919 22.2623Z" fill="white" fill-opacity="0.8"/>
<path fill-rule="evenodd" clip-rule="evenodd" d="M13.2402 13.942C13.2402 16.468 15.3691 18.5227 17.9868 18.5227C20.605 18.5227 22.7333 16.468 22.7333 13.942C22.7333 11.4152 20.605 9.35991 17.9868 9.35991C15.3691 9.35991 13.2402 11.4152 13.2402 13.942ZM19.952 13.9415C19.952 12.8954 19.0705 12.0447 17.9867 12.0447C16.9038 12.0447 16.0214 12.8954 16.0214 13.9415C16.0214 14.9868 16.9038 15.838 17.9867 15.838C19.0705 15.838 19.952 14.9868 19.952 13.9415Z" fill="white" fill-opacity="0.8"/>
</svg>
