<svg width="36" height="36" viewBox="0 0 36 36" fill="none" xmlns="http://www.w3.org/2000/svg">
<rect x="0.5" y="0.5" width="35" height="35" rx="7.5" stroke="white" stroke-opacity="0.8"/>
<path d="M8.60106 17.8588C10.2844 16.9316 12.1635 16.1577 13.9192 15.3799C16.9397 14.1058 19.9723 12.8539 23.0354 11.6883C23.6314 11.4897 24.7022 11.2955 24.8072 12.1787C24.7497 13.4288 24.5132 14.6717 24.3509 15.9145C23.9392 18.6476 23.4632 21.3714 22.9991 24.0955C22.8392 25.0029 21.7025 25.4726 20.9752 24.892C19.2273 23.7113 17.4659 22.5421 15.7403 21.3341C15.1751 20.7597 15.6992 19.9349 16.2041 19.5247C17.6437 18.106 19.1705 16.9006 20.5349 15.4085C20.9029 14.5197 19.8155 15.2687 19.4568 15.4982C17.4859 16.8564 15.5633 18.2975 13.4854 19.4911C12.424 20.0754 11.1869 19.5761 10.1259 19.25C9.1747 18.8562 7.78077 18.4594 8.60097 17.8589L8.60106 17.8588Z" fill="white" fill-opacity="0.8"/>
</svg>
