<svg width="24" height="24" viewBox="0 0 24 24" fill="none" xmlns="http://www.w3.org/2000/svg">
<rect x="0.5" y="0.5" width="23" height="23" rx="7.5" stroke="white" stroke-opacity="0.8"/>
<path fill-rule="evenodd" clip-rule="evenodd" d="M17.659 9.58645C17.7515 9.3234 17.659 9.13208 17.2492 9.13208H15.8878C15.5442 9.13208 15.3856 9.29947 15.2931 9.47886C15.2931 9.47886 14.5926 11.0094 13.6145 12.0018C13.2973 12.2888 13.1519 12.3845 12.9801 12.3845C12.8875 12.3845 12.7686 12.2888 12.7686 12.0257V9.57449C12.7686 9.26361 12.6629 9.12012 12.3721 9.12012H10.2309C10.0194 9.12012 9.88724 9.26361 9.88724 9.4071C9.88724 9.70604 10.3763 9.77777 10.4291 10.6148V12.4323C10.4291 12.8269 10.3498 12.8986 10.178 12.8986C9.7154 12.8986 8.59194 11.3561 7.91786 9.59842C7.78567 9.25164 7.65351 9.12012 7.30988 9.12012H5.93526C5.53875 9.12012 5.47266 9.28754 5.47266 9.46689C5.47266 9.78974 5.93526 11.4159 7.62706 13.5682C8.75055 15.039 10.3498 15.8282 11.7905 15.8282C12.6629 15.8282 12.7686 15.6488 12.7686 15.3499V14.2379C12.7686 13.8791 12.8479 13.8194 13.1255 13.8194C13.3237 13.8194 13.6806 13.915 14.4868 14.6205C15.412 15.4575 15.5706 15.8401 16.0861 15.8401H17.4475C17.844 15.8401 18.0291 15.6608 17.9233 15.314C17.8044 14.9672 17.355 14.465 16.7734 13.8672C16.4562 13.5324 15.9804 13.1617 15.835 12.9823C15.6367 12.7432 15.6896 12.6475 15.835 12.4323C15.8218 12.4323 17.4871 10.3039 17.659 9.58645Z" fill="white" fill-opacity="0.8"/>
</svg>
