<svg width="24" height="24" viewBox="0 0 24 24" fill="none" xmlns="http://www.w3.org/2000/svg">
<rect x="0.5" y="0.5" width="23" height="23" rx="7.5" stroke="white" stroke-opacity="0.8"/>
<path fill-rule="evenodd" clip-rule="evenodd" d="M16.0015 8.69971C16.4421 8.82062 16.7891 9.17687 16.9069 9.62927C17.1209 10.4492 17.1209 12.16 17.1209 12.16C17.1209 12.16 17.1209 13.8707 16.9069 14.6907C16.7891 15.1431 16.4421 15.4993 16.0015 15.6203C15.203 15.84 12.0009 15.84 12.0009 15.84C12.0009 15.84 8.79871 15.84 8.00016 15.6203C7.55955 15.4993 7.21255 15.1431 7.09479 14.6907C6.88086 13.8707 6.88086 12.16 6.88086 12.16C6.88086 12.16 6.88086 10.4492 7.09479 9.62927C7.21255 9.17687 7.55955 8.82062 8.00016 8.69971C8.79871 8.47998 12.0009 8.47998 12.0009 8.47998C12.0009 8.47998 15.203 8.47998 16.0015 8.69971ZM11.0408 10.7201V13.9201L13.6008 12.3202L11.0408 10.7201Z" fill="white" fill-opacity="0.8"/>
</svg>
